<?xml version="1.0" encoding="utf-8"?>
<!-- Generator: Adobe Illustrator 18.0.0, SVG Export Plug-In . SVG Version: 6.00 Build 0)  -->
<!DOCTYPE svg PUBLIC "-//W3C//DTD SVG 1.1//EN" "http://www.w3.org/Graphics/SVG/1.1/DTD/svg11.dtd">
<svg version="1.1" xmlns="http://www.w3.org/2000/svg" xmlns:xlink="http://www.w3.org/1999/xlink" x="0px" y="0px" width="2800px"
	 height="2800px" viewBox="0 0 2800 2800" enable-background="new 0 0 2800 2800" xml:space="preserve">
<g id="BACKGROUND">
	<g>
		<linearGradient id="SVGID_1_" gradientUnits="userSpaceOnUse" x1="1400" y1="2800" x2="1400" y2="-6.285427e-08">
			<stop  offset="0" style="stop-color:#FFFFFF"/>
			<stop  offset="1" style="stop-color:#E3F5FF"/>
		</linearGradient>
		<rect fill="url(#SVGID_1_)" width="2800" height="2800"/>
	</g>
</g>
<g id="OBJECTS">
	
		<radialGradient id="SVGID_2_" cx="1344.1953" cy="2256.8184" r="452.7326" gradientTransform="matrix(2.0917 0 0 0.3721 -1467.4799 1539.4679)" gradientUnits="userSpaceOnUse">
		<stop  offset="0" style="stop-color:#000000"/>
		<stop  offset="1" style="stop-color:#000000;stop-opacity:0"/>
	</radialGradient>
	<ellipse opacity="0.3" fill="url(#SVGID_2_)" cx="1344.2" cy="2379.3" rx="947" ry="168.5"/>
	<g>
		
			<linearGradient id="SVGID_3_" gradientUnits="userSpaceOnUse" x1="771.0437" y1="1310.5842" x2="1917.347" y2="1310.5842" gradientTransform="matrix(1 0 0 -1 1.691314e-04 3191.4136)">
			<stop  offset="0" style="stop-color:#0084FF"/>
			<stop  offset="0.1921" style="stop-color:#0280F6"/>
			<stop  offset="0.5054" style="stop-color:#0874DE"/>
			<stop  offset="0.8987" style="stop-color:#1261B6"/>
			<stop  offset="1" style="stop-color:#155BAB"/>
		</linearGradient>
		<path fill="url(#SVGID_3_)" d="M1532.7,1592.3h193.1c105.3,0,191,85,191.5,190.2c0,0.7,0,1.4,0,2.1c0,210.8-169.5,382-379.7,384.6
			c-1.3,0-2.5,0-3.8,0c-0.4,0-0.7,0-1.1,0l0,0c0,0,0,0-0.1,0H820.2c-27.1,0-49.1-22-49.1-49.1V1977c0-106.2,86.1-192.3,192.3-192.3
			h568.1c53,0,97-42.4,97.4-95.4C1629.2,1635.8,1586,1592.3,1532.7,1592.3z"/>
		<g>
			
				<linearGradient id="SVGID_4_" gradientUnits="userSpaceOnUse" x1="1532.6832" y1="1599.0814" x2="1532.7461" y2="1599.0814" gradientTransform="matrix(1 0 0 -1 1.691314e-04 3191.4136)">
				<stop  offset="0" style="stop-color:#0084FF"/>
				<stop  offset="1" style="stop-color:#155BAB"/>
			</linearGradient>
			<path fill="url(#SVGID_4_)" d="M1532.7,1592.3C1532.7,1592.3,1532.7,1592.3,1532.7,1592.3
				C1532.7,1592.3,1532.7,1592.3,1532.7,1592.3L1532.7,1592.3z"/>
			
				<linearGradient id="SVGID_5_" gradientUnits="userSpaceOnUse" x1="771.0439" y1="1406.7496" x2="1725.0151" y2="1406.7496" gradientTransform="matrix(1 0 0 -1 1.691314e-04 3191.4136)">
				<stop  offset="0" style="stop-color:#0084FF"/>
				<stop  offset="1" style="stop-color:#155BAB"/>
			</linearGradient>
			<path fill="url(#SVGID_5_)" d="M1725,1784.3c-0.2-106-86.2-192-192.3-192c53.3,0,96.5,43.5,96.1,96.9
				c-0.4,53-44.4,95.4-97.4,95.4H963.4c-106.2,0-192.3,86.1-192.3,192.3v0h760C1637,1977,1725.2,1890.3,1725,1784.3z"/>
		</g>
		<g>
			<linearGradient id="SVGID_6_" gradientUnits="userSpaceOnUse" x1="1392.2784" y1="2169.3269" x2="1392.2784" y2="1207.6683">
				<stop  offset="0" style="stop-color:#0084FF"/>
				<stop  offset="1" style="stop-color:#4ECC69"/>
			</linearGradient>
			<path fill="url(#SVGID_6_)" d="M1530.1,1207.7H820.2c-27.1,0-49.1,22-49.1,49.1v286.4c0,27.1,22,49.1,49.1,49.1h712.5
				c0,0,0.1,0,0.1,0c159.3,0.1,288.4,129.2,288.4,288.5c0,159.3-129.2,288.5-288.5,288.5h0c266.1,0,481.7-216.1,480.8-482.4
				C2012.7,1421.6,1795.5,1207.7,1530.1,1207.7z"/>
		</g>
		<linearGradient id="SVGID_7_" gradientUnits="userSpaceOnUse" x1="1344.1956" y1="2169.3274" x2="1344.1956" y2="1400.0005">
			<stop  offset="0" style="stop-color:#0084FF"/>
			<stop  offset="1" style="stop-color:#4ECC69"/>
		</linearGradient>
		<path fill="url(#SVGID_7_)" d="M1530.2,1400H771v143.2c0,27.1,22,49.1,49.1,49.1h712.5c0,0,0.1,0,0.1,0
			c159.3,0.1,288.4,129.2,288.4,288.5c0,159.3-129.2,288.5-288.5,288.5h0c1.7,0,3.3,0,5,0c209.9-2.7,379.3-173.5,379.7-384
			C1917.7,1573.4,1742.1,1400,1530.2,1400z"/>
		<linearGradient id="SVGID_8_" gradientUnits="userSpaceOnUse" x1="771.0437" y1="919.1706" x2="1917.347" y2="919.1706">
			<stop  offset="0" style="stop-color:#FCFF4C"/>
			<stop  offset="9.306120e-02" style="stop-color:#FBF64E"/>
			<stop  offset="0.2449" style="stop-color:#FADE53"/>
			<stop  offset="0.4367" style="stop-color:#F7B65B"/>
			<stop  offset="0.661" style="stop-color:#F37F66"/>
			<stop  offset="0.9098" style="stop-color:#EF3974"/>
			<stop  offset="1" style="stop-color:#ED1E79"/>
		</linearGradient>
		<path fill="url(#SVGID_8_)" d="M1532.7,1207.7h193.1c105.3,0,191-85,191.5-190.2c0-0.7,0-1.4,0-2.1c0-210.8-169.5-382-379.7-384.6
			c-1.3,0-2.5,0-3.8,0c-0.4,0-0.7,0-1.1,0l0,0c0,0,0,0-0.1,0H820.2c-27.1,0-49.1,22-49.1,49.1V823c0,106.2,86.1,192.3,192.3,192.3
			h568.1c53,0,97,42.4,97.4,95.4C1629.2,1164.2,1586,1207.7,1532.7,1207.7z"/>
		<g>
			<linearGradient id="SVGID_9_" gradientUnits="userSpaceOnUse" x1="1532.6832" y1="1207.6678" x2="1532.7461" y2="1207.6678">
				<stop  offset="0" style="stop-color:#FCFF4C"/>
				<stop  offset="1" style="stop-color:#ED1E79"/>
			</linearGradient>
			<path fill="url(#SVGID_9_)" d="M1532.7,1207.7C1532.7,1207.7,1532.7,1207.7,1532.7,1207.7
				C1532.7,1207.7,1532.7,1207.7,1532.7,1207.7L1532.7,1207.7z"/>
			<linearGradient id="SVGID_10_" gradientUnits="userSpaceOnUse" x1="771.0439" y1="1015.3361" x2="1725.0151" y2="1015.3361">
				<stop  offset="0" style="stop-color:#FCFF4C"/>
				<stop  offset="1" style="stop-color:#ED1E79"/>
			</linearGradient>
			<path fill="url(#SVGID_10_)" d="M1725,1015.7c-0.2,106-86.2,192-192.3,192c53.3,0,96.5-43.5,96.1-96.9
				c-0.4-53-44.4-95.4-97.4-95.4H963.4C857.2,1015.3,771,929.2,771,823v0h760C1637,823,1725.2,909.7,1725,1015.7z"/>
		</g>
		<g>
			<linearGradient id="SVGID_11_" gradientUnits="userSpaceOnUse" x1="771.0439" y1="1111.5023" x2="2013.5127" y2="1111.5023">
				<stop  offset="0" style="stop-color:#4ECC69"/>
				<stop  offset="0.1124" style="stop-color:#57CF68"/>
				<stop  offset="0.2958" style="stop-color:#6FD663"/>
				<stop  offset="0.5274" style="stop-color:#97E15D"/>
				<stop  offset="0.7953" style="stop-color:#CEF154"/>
				<stop  offset="1" style="stop-color:#FCFF4C"/>
			</linearGradient>
			<path fill="url(#SVGID_11_)" d="M1530.1,1592.3H820.2c-27.1,0-49.1-22-49.1-49.1v-286.4c0-27.1,22-49.1,49.1-49.1h712.5
				c0,0,0.1,0,0.1,0c159.3-0.1,288.4-129.2,288.4-288.5c0-159.3-129.2-288.5-288.5-288.5h0c266.1,0,481.7,216.1,480.8,482.4
				C2012.7,1378.4,1795.5,1592.3,1530.1,1592.3z"/>
		</g>
		
			<linearGradient id="SVGID_12_" gradientUnits="userSpaceOnUse" x1="771.0437" y1="219.0211" x2="1917.3467" y2="219.0211" gradientTransform="matrix(1 0 0 -1 1.352737e-04 1234.3572)">
			<stop  offset="0" style="stop-color:#4ECC69"/>
			<stop  offset="1" style="stop-color:#FCFF4C"/>
		</linearGradient>
		<path fill="url(#SVGID_12_)" d="M1530.2,1400H771v-143.2c0-27.1,22-49.1,49.1-49.1h712.5c0,0,0.1,0,0.1,0
			c159.3-0.1,288.4-129.2,288.4-288.5c0-159.3-129.2-288.5-288.5-288.5h0c1.7,0,3.3,0,5,0c209.9,2.7,379.3,173.5,379.7,384
			C1917.7,1226.6,1742.1,1400,1530.2,1400z"/>
	</g>
</g>
</svg>
