<?xml version="1.0" encoding="UTF-8" standalone="no"?>
<!DOCTYPE svg PUBLIC "-//W3C//DTD SVG 1.1//EN" "http://www.w3.org/Graphics/SVG/1.1/DTD/svg11.dtd">

<svg height="100%" stroke-miterlimit="10" style="fill-rule:nonzero;clip-rule:evenodd;stroke-linecap:round;stroke-linejoin:round;" version="1.1" viewBox="0 0 841.995 595.35" width="100%" xml:space="preserve" xmlns="http://www.w3.org/2000/svg" xmlns:vectornator="http://vectornator.io" xmlns:xlink="http://www.w3.org/1999/xlink">
<metadata>
<vectornator:setting key="IsTimeLapseWatermarkDisabled" value="false"/>
<vectornator:setting key="UndoHistoryDisabled" value="true"/>
<vectornator:setting key="VNDimensionsVisible" value="true"/>
<vectornator:setting key="VNSnapToGuides" value="true"/>
<vectornator:setting key="WDCMYKEnabledKey" value="false"/>
<vectornator:setting key="WDDisplayWhiteBackground" value="false"/>
<vectornator:setting key="WDDynamicGuides" value="false"/>
<vectornator:setting key="WDGuidesVisible" value="true"/>
<vectornator:setting key="WDIsolateActiveLayer" value="false"/>
<vectornator:setting key="WDOutlineMode" value="false"/>
<vectornator:setting key="WDRulersVisible" value="true"/>
<vectornator:setting key="WDSnapToEdges" value="false"/>
<vectornator:setting key="WDSnapToGrid" value="false"/>
<vectornator:setting key="WDSnapToPoints" value="false"/>
<vectornator:setting key="WDUnits" value="Points"/>
</metadata>
<defs/>
<g id="Layer-1" vectornator:layerName="Layer 1">
<path d="M390.464 31.7753C383.238 32.3534 376.806 33.0761 371.17 33.9432C365.533 34.8104 359.463 35.9666 352.959 37.4119C346.456 38.8572 339.88 40.5915 333.231 42.6149C326.583 44.6383 319.79 47.023 312.853 49.769C305.916 52.515 299.773 55.1888 294.426 57.7903C289.078 60.3917 281.346 64.7998 271.229 71.0145C261.112 77.2292 251.212 84.311 241.529 92.26C231.845 100.209 224.474 106.785 219.416 111.988C214.357 117.191 209.949 122.033 206.192 126.513C202.434 130.993 197.159 138.22 190.366 148.192C183.573 158.165 178.37 166.547 174.757 173.34C171.144 180.133 168.253 186.131 166.085 191.334C165.001 193.935 163.917 196.537 162.833 199.138C165.652 198.126 168.261 196.642 171.08 195.63C176.716 193.607 183.186 191.396 190.412 189.662C197.639 187.927 205.335 186.525 213.862 185.514C222.389 184.502 229.388 184.83 234.158 184.83C238.927 184.83 243.046 183.818 246.515 181.795C249.983 179.771 254.608 177.676 260.389 175.508C266.171 173.34 271.59 171.606 276.649 170.305C281.707 169.004 287.344 167.848 293.559 166.836C299.773 165.824 305.41 165.102 310.468 164.668C315.527 164.235 322.753 164.09 332.147 164.235C341.542 164.379 348.912 164.813 354.26 165.535C359.608 166.258 365.027 167.342 370.519 168.787C376.011 170.233 378.757 171.1 378.757 171.389C378.757 171.678 375.795 172.906 369.869 175.074C363.943 177.242 358.451 179.627 353.393 182.228C348.334 184.83 343.131 187.865 337.784 191.334C332.436 194.802 329.039 198.168 326.438 200.625C325.137 201.853 324.864 204.916 327.321 206.144C332.235 208.601 339.952 213.446 346.456 217.782C352.959 222.118 359.589 226.559 365.948 232.051C372.307 237.543 376.943 241.837 380.845 246.028C384.747 250.22 389.577 255.929 394.058 261.854C398.538 267.78 401.694 272.403 404.584 277.172C407.475 281.942 411.319 288.5 414.499 295.149C417.679 301.797 420.847 308.632 423.159 315.858C425.472 323.084 426.174 327.239 426.463 327.384C426.608 327.456 426.307 327.406 426.451 327.478C427.68 324.154 428.646 320.622 429.874 317.297C432.331 310.649 435.51 303.752 438.979 296.959C442.447 290.166 446.078 284.01 449.836 278.229C453.593 272.448 458.055 266.098 463.113 259.883C468.172 253.669 473.412 247.519 479.048 242.027C484.685 236.535 490.153 232.268 495.5 228.077C500.848 223.886 507.265 219.429 514.058 215.238C520.851 211.047 527.81 207.098 535.759 203.484C539.733 201.678 541.712 197.765 538.966 192.418C536.22 187.07 532.679 181.433 528.343 175.508C524.007 169.582 519.383 163.946 514.469 158.598C509.555 153.251 503.774 147.686 497.125 141.905C490.477 136.124 483.901 130.993 477.397 126.513C470.894 122.033 463.956 117.841 456.585 113.939C449.215 110.037 442.639 107.002 436.857 104.834C431.076 102.666 426.235 101.076 422.332 100.065C420.381 99.5587 418.43 99.0528 416.479 98.547C420.454 98.1134 424.428 97.6798 428.403 97.2462C436.352 96.3791 444.662 96.09 453.334 96.3791C462.005 96.6681 470.171 97.463 477.831 98.7638C485.491 100.065 493.295 101.943 501.244 104.4C509.193 106.857 517.648 110.254 526.609 114.59C535.57 118.925 544.097 123.984 552.19 129.765C560.284 135.546 567.077 141.11 572.569 146.458C578.061 151.805 581.963 155.852 584.275 158.598C586.588 161.344 589.334 164.957 592.513 169.438C595.693 173.918 598.295 177.965 600.318 181.578C602.341 185.191 606.171 186.925 611.808 186.781C617.444 186.636 622.431 186.709 626.766 186.998C631.102 187.287 637.172 188.082 644.977 189.382C648.879 190.033 652.781 190.683 656.684 191.334C655.455 188.588 654.227 185.842 652.998 183.095C650.541 177.603 647.578 171.822 644.11 165.752C640.641 159.682 636.883 153.684 632.837 147.759C628.79 141.833 624.671 136.269 620.479 131.066C616.288 125.863 611.23 120.154 605.304 113.939C599.378 107.724 594.392 102.811 590.345 99.1973C586.299 95.5842 581.891 91.8987 577.121 88.141C572.352 84.3833 567.293 80.6978 561.946 77.0847C556.598 73.4715 551.179 70.0751 545.687 66.8955C540.194 63.7159 534.63 60.7531 528.994 58.007C523.357 55.261 517.287 52.5873 510.783 49.9858C504.279 47.3843 497.487 44.9996 490.405 42.8317C483.323 40.6638 473.712 38.4236 461.572 36.1111C449.431 33.7987 439.748 32.3534 432.522 31.7753C425.295 31.1972 418.286 30.9082 411.493 30.9082C404.7 30.9082 397.69 31.1972 390.464 31.7753Z" fill="#000000" fill-rule="evenodd" opacity="1" stroke="#000000" stroke-linecap="round" stroke-linejoin="round" stroke-width="1"/>
<path d="M215.731 189.117C210.528 189.695 204.963 190.563 199.038 191.719C193.112 192.875 186.825 194.465 180.177 196.488C173.529 198.512 168.687 200.246 165.652 201.691C162.617 203.137 159.582 208.556 156.547 217.951C153.511 227.345 150.91 237.679 148.742 248.952C146.574 260.225 145.129 270.559 144.406 279.953C143.684 289.347 143.539 299.753 143.973 311.171C144.406 322.588 145.418 333.283 147.008 343.256C148.598 353.228 150.982 363.779 154.162 374.907C157.341 386.036 160.738 395.936 164.351 404.608C167.964 413.279 172.083 421.806 176.708 430.189C181.333 438.572 186.102 446.304 191.016 453.386C195.93 460.468 201.784 467.911 208.576 475.715C215.369 483.52 222.09 490.457 228.738 496.527C235.386 502.597 242.613 508.523 250.417 514.304C258.222 520.085 265.014 523.337 265.592 523.409C265.592 523.048 256.27 513.437 250.634 507.367C244.997 501.297 240.011 495.371 235.675 489.59C231.339 483.809 227.148 477.594 223.101 470.946C219.055 464.298 215.586 458.083 212.695 452.302C209.805 446.521 207.059 440.451 204.457 434.091C201.856 427.732 198.893 418.844 195.569 407.426C192.245 396.008 189.932 386.614 188.632 379.243C187.331 371.872 186.391 365.224 185.813 359.298C185.235 353.373 184.874 347.014 184.729 340.221C184.585 333.428 184.657 327.502 184.946 322.444C185.235 317.385 185.886 311.315 186.897 304.233C187.909 297.152 189.065 290.937 190.366 285.589C191.667 280.242 193.546 274.172 196.003 267.379C198.459 260.586 200.266 255.961 201.422 253.504C202.579 251.047 203.446 249.674 204.024 249.385C204.602 249.096 208.071 248.59 214.43 247.868C220.789 247.145 227.293 246.784 233.941 246.784C240.589 246.784 246.732 247.073 252.368 247.651C258.005 248.229 264.509 249.313 271.879 250.903C279.25 252.493 285.826 254.227 291.607 256.106C297.388 257.985 303.097 260.153 308.734 262.61C314.37 265.067 319.862 267.813 325.21 270.848C330.558 273.883 336.989 278.146 344.504 283.638C352.02 289.13 358.596 294.55 364.232 299.898C369.869 305.245 374.711 310.304 378.757 315.073C382.804 319.842 386.634 324.829 390.247 330.032C393.861 335.235 397.618 341.449 401.52 348.676C405.423 355.902 408.458 362.189 410.626 367.536C412.794 372.884 414.889 379.026 416.913 385.964C418.936 392.901 420.526 399.766 421.682 406.559C422.838 413.352 426.162 435.32 426.451 435.175C426.74 435.031 426.957 432.574 427.102 427.804C427.246 423.035 427.824 417.254 428.836 410.461C429.848 403.668 430.932 398.032 432.088 393.551C433.244 389.071 435.195 383.145 437.941 375.774C440.687 368.404 443.289 362.261 445.746 357.347C448.203 352.433 451.31 346.941 455.068 340.871C458.826 334.801 462.511 329.381 466.124 324.612C469.737 319.842 473.278 315.507 476.747 311.604C480.216 307.702 484.046 303.728 488.237 299.681C492.428 295.634 497.125 291.515 502.328 287.324C507.531 283.132 512.373 279.519 516.853 276.484C521.334 273.449 527.043 270.125 533.98 266.512C540.917 262.899 547.999 259.719 555.225 256.973C562.452 254.227 568.45 252.276 573.219 251.12C577.988 249.963 583.191 249.024 588.828 248.301C594.465 247.579 600.029 247.217 605.521 247.217C611.013 247.217 614.915 249.602 617.228 254.371C619.54 259.141 621.78 264.633 623.948 270.848C626.116 277.062 627.778 282.482 628.934 287.107C630.091 291.732 631.174 297.152 632.186 303.366C633.198 309.581 633.921 315.218 634.354 320.276C634.788 325.334 635.004 332.127 635.004 340.654C635.004 349.181 634.282 359.371 632.837 371.222C631.391 383.073 629.946 392.106 628.501 398.321C627.055 404.535 625.321 410.895 623.298 417.398C621.274 423.902 618.89 430.55 616.144 437.343C613.398 444.136 610.652 450.278 607.906 455.77C605.16 461.262 602.414 466.321 599.668 470.946C596.921 475.571 593.67 480.557 589.912 485.904C586.154 491.252 582.18 496.383 577.988 501.297C573.797 506.21 570.328 510.04 567.582 512.786C564.836 515.532 559.633 520.519 559.778 520.808C559.922 521.097 576.254 511.413 584.492 504.765C592.73 498.117 600.824 490.529 608.773 482.002C616.722 473.475 623.804 464.803 630.018 455.987C636.233 447.171 641.942 437.849 647.145 428.021C652.348 418.193 656.611 409.016 659.935 400.489C663.26 391.962 665.644 385.313 667.09 380.544C668.535 375.774 670.125 369.56 671.859 361.9C673.593 354.24 675.111 345.279 676.412 335.018C677.712 324.756 678.435 314.206 678.579 303.366C678.724 292.527 678.218 281.687 677.062 270.848C675.906 260.008 674.099 249.241 671.642 238.546C669.185 227.851 666.295 217.878 662.971 208.629C659.646 199.379 655.311 194.248 649.963 193.236C644.616 192.225 639.123 191.43 633.487 190.852C627.85 190.274 621.636 189.985 614.843 189.985C608.05 189.985 601.763 190.274 595.982 190.852C590.201 191.43 583.842 192.442 576.904 193.887C569.967 195.332 563.752 196.922 558.26 198.656C552.768 200.391 547.421 202.342 542.218 204.51C537.015 206.677 531.451 209.351 525.525 212.531C519.599 215.71 514.035 219.035 508.832 222.503C503.629 225.972 498.787 229.513 494.307 233.126C489.827 236.739 485.563 240.497 481.516 244.399C477.47 248.301 473.134 252.926 468.509 258.274C463.884 263.621 458.537 270.92 452.466 280.17C446.396 289.419 441.699 297.513 438.375 304.45C435.051 311.388 432.233 318.325 429.92 325.262C427.608 332.199 426.307 335.74 426.018 335.885C425.873 335.957 425.729 336.029 425.584 336.102C425.151 334.223 424.717 332.344 424.284 330.465C423.416 326.707 421.899 321.794 419.731 315.723C417.563 309.653 415.034 303.583 412.143 297.513C409.253 291.443 406.651 286.457 404.339 282.554C402.026 278.652 399.353 274.533 396.317 270.197C393.282 265.861 389.886 261.453 386.128 256.973C382.371 252.493 378.613 248.374 374.855 244.616C371.097 240.858 366.689 236.884 361.631 232.692C356.572 228.501 350.213 223.948 342.553 219.035C334.893 214.121 327.884 210.146 321.525 207.111C315.165 204.076 308.951 201.474 302.881 199.307C296.81 197.139 290.885 195.332 285.104 193.887C279.323 192.442 273.758 191.285 268.411 190.418C263.063 189.551 254.247 188.973 241.962 188.684C229.677 188.395 220.933 188.539 215.731 189.117Z" fill="#000000" fill-rule="evenodd" opacity="1" stroke="#000000" stroke-linecap="round" stroke-linejoin="round" stroke-width="1"/>
<path d="M256.623 260.942C251.998 266.723 248.095 272.215 244.916 277.418C241.736 282.621 238.846 287.896 236.244 293.243C233.643 298.591 231.258 304.155 229.09 309.936C226.922 315.717 225.043 321.571 223.454 327.496C221.864 333.422 220.563 339.275 219.551 345.056C218.54 350.838 217.745 357.63 217.167 365.435C216.589 373.239 216.372 379.888 216.516 385.38C216.661 390.872 217.528 399.11 219.118 410.094C220.708 421.078 222.586 430.328 224.754 437.843C226.922 445.358 229.09 451.79 231.258 457.137C233.426 462.485 236.172 468.338 239.496 474.698C242.82 481.057 246 486.549 249.035 491.174C252.07 495.799 255.828 500.857 260.308 506.349C263.84 510.678 267.265 513.721 271.277 517.382C272.441 518.444 273.928 519.954 275.059 520.862C280.33 525.1 285.019 529.333 289.499 532.801C293.979 536.27 299.303 539.234 306.096 543.28C312.889 547.327 321.806 551.312 332.501 554.636C343.196 557.961 352.929 560.817 361.167 562.262C369.405 563.707 377.498 564.791 385.447 565.514C393.396 566.237 403.866 567.728 419.041 567.439C434.217 567.15 447.326 566.183 458.455 564.449C469.584 562.715 472.497 562.471 482.858 559.22C492.694 556.135 494.667 555.402 500.356 553.002C506.216 550.529 511.761 547.827 517.932 544.542C523.72 541.462 528.898 538.016 533.089 534.981C537.28 531.946 541.151 528.632 544.042 526.175C546.932 523.718 551.123 519.671 556.615 514.034C562.108 508.398 566.128 503.531 572.054 495.293C577.979 487.055 582.243 480.551 584.844 475.781C587.446 471.012 589.83 466.17 591.998 461.256C594.166 456.343 596.19 451.14 598.069 445.648C599.947 440.155 601.465 435.097 602.621 430.472C603.777 425.847 604.861 420.5 605.873 414.43C606.885 408.359 607.607 402.362 608.041 396.436C608.475 390.51 608.619 384.079 608.475 377.142C608.33 370.204 607.969 364.134 607.391 358.931C606.812 353.728 606.018 348.525 605.006 343.322C603.994 338.119 602.621 332.483 600.887 326.412C599.152 320.342 597.057 314.2 594.6 307.985C592.143 301.771 589.83 296.495 587.663 292.159C585.495 287.824 582.965 283.271 580.075 278.502C577.184 273.732 573.932 268.963 570.319 264.193C566.706 259.424 565.598 257.537 562.852 258.26C560.106 258.982 556.326 260.207 552.423 261.797C550.603 262.538 548.483 263.512 546.223 264.6C545.969 264.722 545.711 264.846 545.448 264.972C543.029 266.135 540.233 267.484 537.378 269.01C534.386 270.61 531.411 272.334 528.596 274.064C531.197 277.316 532.653 279.546 535.255 282.798C540.458 289.302 544.738 296.423 548.64 303.216C552.542 310.009 556.011 317.452 559.046 325.545C562.081 333.639 564.394 341.805 565.983 350.043C567.573 358.281 568.44 366.88 568.585 375.841C568.729 384.801 568.224 393.112 567.067 400.772C565.911 408.432 563.96 416.525 561.214 425.052C558.468 433.579 555.144 441.601 551.242 449.116C547.339 456.632 542.642 464.075 537.15 471.446C531.658 478.817 526.455 484.959 521.541 489.873C516.627 494.787 512.954 498.305 510.268 500.062C508.633 501.131 501.29 506.292 495.476 508.11C487.798 510.511 479.794 512.663 471.412 514.397C463.029 516.132 454.285 517.505 445.18 518.516C436.075 519.528 425.886 520.106 414.613 520.251C403.339 520.395 391.142 519.49 380.158 518.334C369.174 517.178 360.356 516.613 353.997 515.167C347.637 513.722 344.697 512.878 337.988 509.903C333.935 508.105 329.671 505.78 325.335 502.6C320.999 499.42 313.993 493.839 308.935 489.07C303.876 484.3 299.541 479.748 295.927 475.412C292.314 471.076 288.557 465.873 284.654 459.803C280.752 453.733 276.922 446.434 273.164 437.907C269.407 429.38 266.588 421.431 264.71 414.06C262.831 406.689 261.53 400.113 260.807 394.332C260.085 388.551 259.723 382.336 259.723 375.688C259.723 369.04 260.012 363.187 260.59 358.128C261.169 353.07 262.469 346.566 264.493 338.617C266.516 330.668 269.118 323.08 272.297 315.854C275.477 308.627 279.596 301.257 284.654 293.741C289.713 286.226 293.764 279.185 299.256 273.548C302.002 270.73 299.292 273.59 306.468 265.997C302.349 264.408 298.81 262.84 297.652 262.388C295.064 261.379 293.181 260.551 290.89 259.737C285.898 257.963 281.683 256.862 278.117 255.97C272.914 254.669 269.012 253.875 266.411 253.586C263.809 253.296 261.247 255.16 256.623 260.942Z" fill="#000000" fill-rule="evenodd" opacity="1" stroke="#000000" stroke-linecap="round" stroke-linejoin="round" stroke-width="1"/>
</g>
</svg>
